<svg width="40" height="40" viewBox="0 0 40 40" fill="none" xmlns="http://www.w3.org/2000/svg">
  <rect width="40" height="40" rx="20" fill="#2C68F4" />
  <path
    d="M15.833 15.0469V25H14.5342V15.0469H15.833ZM19.0322 15.0469V16.127H11.3418V15.0469H19.0322ZM24.0566 20.3447H21.5342L21.5205 19.2852H23.8105C24.1888 19.2852 24.5192 19.2214 24.8018 19.0938C25.0843 18.9661 25.3031 18.7839 25.458 18.5469C25.6175 18.3053 25.6973 18.0182 25.6973 17.6855C25.6973 17.321 25.6266 17.0247 25.4854 16.7969C25.3486 16.5645 25.1367 16.3958 24.8496 16.291C24.5671 16.1816 24.207 16.127 23.7695 16.127H21.8281V25H20.5088V15.0469H23.7695C24.2799 15.0469 24.7357 15.0993 25.1367 15.2041C25.5378 15.3044 25.8773 15.4639 26.1553 15.6826C26.4378 15.8968 26.652 16.1702 26.7979 16.5029C26.9437 16.8356 27.0166 17.2344 27.0166 17.6992C27.0166 18.1094 26.9118 18.4808 26.7021 18.8135C26.4925 19.1416 26.2008 19.4105 25.8271 19.6201C25.458 19.8298 25.0251 19.9642 24.5283 20.0234L24.0566 20.3447ZM23.9951 25H21.0146L21.7598 23.9268H23.9951C24.4144 23.9268 24.7699 23.8538 25.0615 23.708C25.3577 23.5622 25.5833 23.3571 25.7383 23.0928C25.8932 22.8239 25.9707 22.5072 25.9707 22.1426C25.9707 21.7734 25.9046 21.4544 25.7725 21.1855C25.6403 20.9167 25.4329 20.7093 25.1504 20.5635C24.8678 20.4176 24.5033 20.3447 24.0566 20.3447H22.1768L22.1904 19.2852H24.7607L25.041 19.668C25.5195 19.709 25.9251 19.8457 26.2578 20.0781C26.5905 20.306 26.8434 20.5977 27.0166 20.9531C27.1943 21.3086 27.2832 21.7005 27.2832 22.1289C27.2832 22.7487 27.1465 23.2728 26.873 23.7012C26.6042 24.125 26.2236 24.4486 25.7314 24.6719C25.2393 24.8906 24.6605 25 23.9951 25Z"
    fill="white" />
</svg>